# Created by Open3D 
# object name: obj_cropped
# number of vertices: 153
# number of triangles: 302
v -0.0240482 -0.0750855 0.0200943
vn -0.759492 -0.574905 0.304394
v -0.016712 -0.0778631 0.013
vn -0.0850016 -0.062629 -0.994411
v -0.0560567 -0.00570415 0.013
vn -0.57135 -0.242661 -0.784012
v -0.0521733 -0.0100955 0.0568051
vn -0.773213 -0.518073 0.365708
v -0.0391022 0.0429491 0.013
vn -0.0454917 0.132364 -0.990157
v -0.0460222 0.0329697 0.013
vn -0.672961 0.320412 -0.666678
v -0.0391022 0.0429491 0.0197616
vn -0.509335 0.848417 0.144103
v -0.0065282 -0.0805512 0.013
vn -0.00431064 -0.0728814 -0.997331
v -0.0100872 -0.0806226 0.0180215
vn -0.126365 -0.923454 0.362304
v -0.0137328 -0.0792474 0.0183437
vn -0.365086 -0.930585 0.0269141
v -0.0351256 0.0410156 0.013
vn 0.3504 0.620779 -0.701323
v -0.0328126 0.0396221 0.0199936
vn 0.523561 0.851985 0.00243196
v -0.0290043 0.0372792 0.013
vn 0.512683 0.812046 -0.278814
v 0.0386822 -0.03651 0.013
vn 0.614058 -0.149635 -0.774947
v 0.0379104 -0.0255631 0.013
vn 0.621356 0.17788 -0.76307
v 0.0389544 -0.0296036 0.0176606
vn 0.994212 0.107416 -0.00222847
v -0.00475234 -0.0805156 0.0174844
vn 0.255915 -0.942356 0.215576
v -0.000618751 -0.0790045 0.013
vn 0.0427784 -0.0932316 -0.994725
v 0.00452464 -0.0760444 0.0172465
vn 0.538112 -0.833922 0.122511
v 0.000975576 -0.0694212 0.0431498
vn -0.302161 -0.786546 0.538557
v -0.000485716 -0.0559527 0.0602829
vn -0.385807 -0.72062 0.576073
v -0.0014423 -0.0519206 0.0633789
vn -0.548873 -0.576418 0.605376
v 0.00220539 -0.0546656 0.0631586
vn -0.342409 -0.601958 0.721389
v 0.00613464 -0.0507115 0.0674081
vn -0.138029 -0.194551 0.971132
v -0.0545579 -0.000320321 0.0606537
vn -0.99458 -0.0470945 0.0926995
v -0.0498499 0.0210264 0.0577254
vn -0.479929 0.401234 0.780179
v -0.0496264 0.0240177 0.0560098
vn -0.907031 0.416344 0.0628685
v -0.0466614 0.0221584 0.0588962
vn -0.405133 0.422649 0.8107
v -0.0422283 0.00573936 0.0668766
vn 0.0163633 0.20132 0.979389
v -0.000356541 -0.0207358 0.0692328
vn 0.140528 0.195381 0.970607
v -0.00378712 -0.0220362 0.0695792
vn 0.0448162 -0.00788006 0.998964
v -0.0146703 -0.00231157 0.0667135
vn 0.108803 0.267597 0.957368
v -0.0384994 0.0243114 0.0610643
vn 0.0304847 0.304558 0.952006
v -0.00983703 -0.0205009 0.0692835
vn -0.125752 -0.0984406 0.987166
v -0.0464249 0.00312526 0.0666568
vn -0.215734 -0.0579268 0.974733
v 0.0348392 -0.0217233 0.0491515
vn 0.745208 0.645632 0.166805
v 0.0363082 -0.0245517 0.0507498
vn 0.8869 0.395027 0.239506
v 0.0326713 -0.0220203 0.0548861
vn 0.599705 0.634672 0.487387
v 0.0375704 -0.0240587 0.0418448
vn 0.947624 0.317362 0.0359321
v 0.0353308 -0.0213913 0.0435056
vn 0.743783 0.661943 0.092838
v 0.0372123 -0.0270889 0.0475842
vn 0.984697 -0.0231963 0.172725
v 0.0368731 -0.0226226 0.0175599
vn 0.79353 0.608422 -0.0115171
v 0.0068699 -0.0745866 0.013
vn 0.0728866 -0.100867 -0.992227
v 0.0301896 -0.0504024 0.013
vn 0.107562 -0.0926885 -0.989868
v 0.0301896 -0.0504024 0.0174072
vn 0.769328 -0.626824 0.123393
v 0.037191 -0.0406744 0.013
vn 0.68806 -0.33616 -0.643094
v 0.000635904 -0.0775647 0.0192934
vn 0.43135 -0.885888 0.170705
v -0.0196962 -0.0764757 0.0204884
vn -0.282533 -0.825532 0.488542
v 0.00758726 -0.069367 0.0441607
vn 0.41305 -0.883483 0.221014
v 0.00377724 -0.0573374 0.0607507
vn -0.284148 -0.761694 0.582307
v -0.0351256 0.0410156 0.021812
vn 0.452454 0.891107 0.0348336
v -0.0271639 0.0360562 0.0364124
vn 0.503304 0.862744 0.0485512
v 0.00653666 -0.0452868 0.0679656
vn 0.0855438 -0.0346328 0.995732
v 0.00994045 -0.0439398 0.067638
vn 0.139169 -0.111431 0.983979
v 0.00533227 -0.0547076 0.0644696
vn -0.196285 -0.664827 0.720747
v 0.00648178 -0.0653568 0.0512911
vn -0.14704 -0.807236 0.57162
v -0.00447727 -0.0478138 0.0642893
vn -0.485479 -0.486893 0.726116
v -0.0119668 -0.0394913 0.0646767
vn -0.434632 -0.413939 0.799843
v -0.0559359 -0.00158804 0.013
vn -0.761909 0.11289 -0.63777
v -0.0462234 0.0132757 0.0631139
vn -0.321436 0.346561 0.881234
v -0.0417447 0.0246156 0.0598319
vn -0.344429 0.458978 0.818968
v 0.0344867 -0.0202129 0.013
vn 0.526224 0.390389 -0.755437
v 0.0356294 -0.0260739 0.0540358
vn 0.935363 0.121058 0.332326
v 0.0335588 -0.0277002 0.0597902
vn 0.608027 0.492902 0.622375
v 0.0348063 -0.0301485 0.0550293
vn 0.946632 -0.136041 0.292201
v 0.0354558 -0.0211488 0.0394744
vn 0.76718 0.641312 0.0123758
v 0.0289297 -0.0135177 0.0299922
vn 0.725299 0.688434 0.000556692
v 0.0377872 -0.0281435 0.0419741
vn 0.994826 -0.0666337 0.0766848
v 0.0142372 -0.0687988 0.0177387
vn 0.720386 -0.682933 0.121021
v 0.00975251 -0.0666568 0.0486689
vn 0.692699 -0.692468 0.201634
v 0.0119067 -0.0702358 0.013
vn 0.0629794 -0.0607281 -0.996165
v 0.0360049 -0.0312615 0.0502078
vn 0.944777 -0.296528 0.139529
v 0.0343067 -0.0365423 0.0481117
vn 0.915674 -0.381739 0.125765
v -0.0158703 -0.0764397 0.022515
vn -0.240159 -0.842916 0.481474
v 0.0339807 -0.0448429 0.0177412
vn 0.831552 -0.541531 0.123554
v 0.0307946 -0.0420215 0.0501455
vn 0.814016 -0.565844 0.131142
v -0.0374393 0.0356407 0.0462942
vn -0.0142815 0.956865 0.290182
v -0.0399422 0.0340059 0.0498031
vn -0.235252 0.910558 0.339914
v -0.0349906 0.0402967 0.028269
vn 0.330143 0.932256 0.148003
v -0.0326391 0.0377688 0.0369282
vn 0.139458 0.95881 0.247459
v -0.024597 0.0344152 0.013
vn 0.642716 0.766087 -0.00516004
v -0.0246931 0.0339934 0.0410282
vn 0.640654 0.764984 0.0660442
v -0.0349066 0.0335811 0.0508584
vn 0.0554492 0.910392 0.410015
v 0.00837941 -0.053385 0.0657435
vn 0.280684 -0.405683 0.86985
v 0.0081995 -0.0560427 0.0634887
vn 0.133956 -0.705327 0.696111
v 0.00733911 -0.0586942 0.0604965
vn -0.0178822 -0.791409 0.611025
v 0.00408756 -0.0694115 0.0444693
vn -0.0494682 -0.893505 0.44632
v 0.00118693 -0.0492843 0.0662039
vn -0.356556 -0.384819 0.851341
v -0.00879953 -0.0395844 0.065958
vn -0.32416 -0.304965 0.895498
v -0.0444626 0.000242834 0.0665459
vn -0.33829 -0.312725 0.88756
v -0.0497535 -0.00212495 0.0633088
vn -0.430223 -0.374114 0.821552
v -0.0506064 -0.00613189 0.0604131
vn -0.490256 -0.456827 0.742266
v -0.052528 0.0022818 0.0626767
vn -0.602202 0.0316062 0.797718
v -0.0533385 0.0110496 0.0600805
vn -0.632097 0.210961 0.74562
v -0.0509406 0.0137381 0.060488
vn -0.449591 0.334887 0.828081
v 0.0237253 -0.00877143 0.0430822
vn 0.714965 0.692208 0.0983536
v 0.0271345 -0.0120907 0.013
vn 0.718477 0.693361 -0.0551553
v 0.0165591 -0.00137669 0.013
vn 0.695897 0.718078 -0.00950687
v 0.0388946 -0.0325856 0.0218453
vn 0.981717 -0.172636 0.0801746
v 0.0239265 -0.0278103 0.0652051
vn 0.25466 0.298133 0.919927
v 0.00425162 -0.0152274 0.066285
vn 0.240728 0.30094 0.92276
v 0.0231044 -0.0318802 0.0661974
vn 0.206372 0.134821 0.969141
v 0.0284592 -0.0291824 0.0641445
vn 0.414612 0.342438 0.84311
v -0.00458145 0.000305708 0.0633347
vn 0.330631 0.430401 0.839903
v 0.0191847 -0.0531835 0.059346
vn 0.672175 -0.653863 0.347339
v 0.0145864 -0.0572422 0.0582668
vn 0.491349 -0.724719 0.483071
v 0.0286913 -0.0436029 0.0559239
vn 0.747473 -0.646075 0.154503
v -0.0339629 0.0269905 0.0596935
vn 0.270771 0.450446 0.850753
v 0.025108 -0.0236527 0.0626043
vn 0.42624 0.498287 0.755003
v 0.0315674 -0.0190962 0.051674
vn 0.665509 0.693661 0.275559
v -0.0320291 0.035361 0.045724
vn 0.107419 0.949858 0.29365
v -0.0287482 0.0354485 0.0429881
vn 0.291258 0.932053 0.215514
v -0.0284237 0.0333348 0.0493932
vn 0.498006 0.738453 0.454618
v 0.00729253 0.00519471 0.0478752
vn 0.622049 0.712898 0.323776
v 0.00844935 0.0055548 0.0429768
vn 0.645581 0.746211 0.162465
v 0.0103759 0.00443368 0.0388533
vn 0.652016 0.758112 0.0118846
v -0.0469365 0.0282458 0.0547548
vn -0.410816 0.577864 0.705197
v -0.0531928 0.0154624 0.058322
vn -0.96963 0.244311 0.0114047
v -0.0515203 0.0182476 0.013
vn -0.556543 0.159659 -0.815334
v 0.0328178 -0.0185655 0.0427759
vn 0.733112 0.676525 0.0697273
v 0.0329435 -0.0183135 0.0387434
vn 0.732065 0.67961 0.0470167
v 0.0312967 -0.0166482 0.013
vn 0.737064 0.671372 -0.0774369
v 0.0317548 -0.0383961 0.0594956
vn 0.853226 -0.477988 0.208644
v 0.0288872 -0.037248 0.0643998
vn 0.557531 -0.303591 0.772653
v 0.0277514 -0.0412015 0.0630384
vn 0.609471 -0.55904 0.562156
v 0.027639 -0.0332428 0.0651345
vn 0.436535 0.081135 0.896021
v 0.01058 -0.0599824 0.0578983
vn 0.35412 -0.763788 0.539654
v 0.0133355 -0.0546613 0.0630206
vn 0.453016 -0.602618 0.656984
v -0.00831234 -0.0024475 0.0653439
vn 0.227778 0.32863 0.91658
v -0.0382817 0.0272757 0.0593556
vn -0.0906715 0.67692 0.730451
v 0.00411131 0.00340128 0.0545663
vn 0.547972 0.645165 0.532437
v 0.00478757 0.00501815 0.0512753
vn 0.563907 0.690403 0.453158
v -0.0312776 0.0315666 0.054507
vn 0.347084 0.704244 0.619333
v -0.0388194 0.0321945 0.0529153
vn -0.0675947 0.829377 0.554585
v 0.0297115 -0.0263817 0.0615877
vn 0.488619 0.548371 0.678632
v -0.0258633 0.0335428 0.0459447
vn 0.571564 0.731209 0.372355
v 0.0189966 -0.0045764 0.0440919
vn 0.668811 0.709064 0.223429
v 0.0100998 0.00464264 0.013
vn 0.0682521 0.0784811 -0.994576
v 0.0195024 -0.00416818 0.0384284
vn 0.700995 0.713117 0.00830492
v -0.0463292 0.0313918 0.0514053
vn -0.75614 0.644436 0.113818
v -0.0416457 0.0308337 0.0540665
vn -0.20044 0.819142 0.537429
v 0.033542 -0.0329511 0.0575963
vn 0.934895 -0.180365 0.305678
v 0.0308129 -0.0345043 0.06259
vn 0.748649 -0.0470323 0.661296
v 0.0251059 -0.0372865 0.0662452
vn 0.17249 -0.0934992 0.980564
v 0.00951272 -0.063981 0.0525744
vn 0.1375 -0.808429 0.572308
v 0.0114293 -0.0573265 0.0608994
vn 0.237082 -0.743709 0.625051
v -0.0405103 0.0290354 0.0571671
vn -0.19665 0.73591 0.647893
v -0.0297066 0.0285134 0.0560376
vn 0.419213 0.562078 0.712972
v 0.000345584 0.000332138 0.0605372
vn 0.462478 0.571414 0.677938
v 0.00122905 0.00481348 0.0555539
vn 0.491831 0.619259 0.612062
v -0.0272402 0.0301252 0.0525608
vn 0.526215 0.662295 0.533351
v 0.0136106 0.001421 0.0402999
vn 0.685101 0.727308 0.0407385
v 0.019523 -0.0479191 0.0638775
vn 0.374902 -0.406593 0.833145
f 2//2 1//1 3//3
f 1//1 4//4 3//3
f 5//5 6//6 7//7
f 2//2 8//8 9//9
f 10//10 2//2 9//9
f 10//10 1//1 2//2
f 11//11 12//12 13//13
f 14//14 15//15 16//16
f 17//17 8//8 18//18
f 8//8 17//17 9//9
f 19//19 17//17 18//18
f 20//20 21//21 1//1
f 1//1 22//22 4//4
f 21//21 22//22 1//1
f 22//22 21//21 23//23
f 24//24 22//22 23//23
f 4//4 25//25 3//3
f 27//27 26//26 28//28
f 30//30 29//29 31//31
f 29//29 30//30 32//32
f 33//33 29//29 32//32
f 34//34 24//24 31//31
f 34//34 35//35 24//24
f 29//29 34//34 31//31
f 34//34 29//29 35//35
f 37//37 36//36 38//38
f 36//36 39//39 40//40
f 39//39 36//36 37//37
f 41//41 39//39 37//37
f 42//42 39//39 15//15
f 15//15 39//39 16//16
f 43//43 19//19 18//18
f 45//45 44//44 46//46
f 47//47 17//17 19//19
f 48//48 20//20 1//1
f 48//48 10//10 9//9
f 10//10 48//48 1//1
f 17//17 49//49 9//9
f 47//47 49//49 17//17
f 49//49 47//47 19//19
f 21//21 50//50 23//23
f 20//20 50//50 21//21
f 11//11 51//51 12//12
f 12//12 52//52 13//13
f 51//51 52//52 12//12
f 24//24 53//53 31//31
f 54//54 53//53 24//24
f 55//55 24//24 23//23
f 50//50 55//55 23//23
f 56//56 50//50 20//20
f 57//57 58//58 4//4
f 22//22 57//57 4//4
f 25//25 59//59 3//3
f 60//60 61//61 28//28
f 61//61 60//60 33//33
f 29//29 60//60 35//35
f 60//60 29//29 33//33
f 62//62 42//42 15//15
f 63//63 41//41 37//37
f 63//63 37//37 38//38
f 64//64 63//63 38//38
f 63//63 64//64 65//65
f 39//39 66//66 40//40
f 66//66 39//39 42//42
f 67//67 66//66 42//42
f 39//39 68//68 16//16
f 68//68 39//39 41//41
f 49//49 69//69 70//70
f 69//69 49//49 19//19
f 44//44 69//69 71//71
f 69//69 44//44 45//45
f 69//69 43//43 71//71
f 43//43 69//69 19//19
f 72//72 63//63 65//65
f 63//63 72//72 41//41
f 72//72 68//68 41//41
f 14//14 72//72 46//46
f 72//72 73//73 46//46
f 20//20 74//74 9//9
f 74//74 48//48 9//9
f 48//48 74//74 20//20
f 75//75 45//45 46//46
f 75//75 76//76 45//45
f 78//78 77//77 7//7
f 80//80 79//79 7//7
f 79//79 51//51 7//7
f 79//79 52//52 51//51
f 52//52 81//81 13//13
f 82//82 81//81 52//52
f 83//83 77//77 78//78
f 55//55 84//84 24//24
f 84//84 55//55 85//85
f 55//55 86//86 85//85
f 86//86 55//55 50//50
f 56//56 86//86 50//50
f 87//87 49//49 70//70
f 56//56 87//87 70//70
f 87//87 56//56 20//20
f 87//87 20//20 9//9
f 49//49 87//87 9//9
f 88//88 22//22 24//24
f 88//88 57//57 22//22
f 89//89 88//88 24//24
f 88//88 89//89 58//58
f 57//57 88//88 58//58
f 91//91 90//90 35//35
f 35//35 90//90 24//24
f 90//90 89//89 24//24
f 89//89 90//90 58//58
f 90//90 91//91 58//58
f 58//58 92//92 4//4
f 91//91 92//92 58//58
f 92//92 25//25 4//4
f 92//92 91//91 25//25
f 94//94 93//93 35//35
f 93//93 94//94 25//25
f 93//93 91//91 35//35
f 91//91 93//93 25//25
f 60//60 95//95 35//35
f 95//95 94//94 35//35
f 26//26 95//95 28//28
f 95//95 60//60 28//28
f 96//96 36//36 40//40
f 67//67 97//97 98//98
f 99//99 72//72 14//14
f 72//72 99//99 68//68
f 99//99 14//14 16//16
f 68//68 99//99 16//16
f 100//100 101//101 30//30
f 100//100 30//30 102//102
f 103//103 100//100 102//102
f 104//104 100//100 103//103
f 105//105 106//106 70//70
f 107//107 105//105 70//70
f 69//69 107//107 70//70
f 76//76 107//107 45//45
f 107//107 69//69 45//45
f 108//108 33//33 32//32
f 109//109 104//104 103//103
f 36//36 110//110 38//38
f 96//96 110//110 36//36
f 83//83 111//111 77//77
f 111//111 80//80 7//7
f 77//77 111//111 7//7
f 112//112 111//111 113//113
f 111//111 112//112 80//80
f 112//112 79//79 80//80
f 79//79 112//112 52//52
f 82//82 114//114 115//115
f 110//110 114//114 38//38
f 116//116 82//82 115//115
f 116//116 81//81 82//82
f 117//117 27//27 28//28
f 61//61 117//117 28//28
f 118//118 95//95 26//26
f 95//95 118//118 94//94
f 118//118 26//26 27//27
f 119//119 118//118 6//6
f 118//118 27//27 6//6
f 59//59 118//118 119//119
f 118//118 59//59 25//25
f 94//94 118//118 25//25
f 120//120 96//96 40//40
f 121//121 66//66 67//67
f 96//96 121//121 67//67
f 120//120 121//121 96//96
f 66//66 121//121 40//40
f 121//121 120//120 40//40
f 62//62 122//122 42//42
f 122//122 67//67 42//42
f 122//122 97//97 67//67
f 123//123 124//124 125//125
f 72//72 123//123 73//73
f 123//123 107//107 76//76
f 105//105 123//123 125//125
f 107//107 123//123 105//105
f 73//73 123//123 46//46
f 123//123 75//75 46//46
f 75//75 123//123 76//76
f 126//126 103//103 102//102
f 106//106 127//127 70//70
f 128//128 105//105 125//125
f 128//128 84//84 85//85
f 105//105 128//128 106//106
f 128//128 127//127 106//106
f 129//129 108//108 32//32
f 108//108 129//129 104//104
f 30//30 129//129 32//32
f 101//101 129//129 30//30
f 100//100 129//129 101//101
f 129//129 100//100 104//104
f 108//108 130//130 33//33
f 130//130 61//61 33//33
f 114//114 131//131 38//38
f 131//131 114//114 132//132
f 131//131 64//64 38//38
f 133//133 130//130 108//108
f 111//111 133//133 113//113
f 133//133 111//111 83//83
f 134//134 133//133 78//78
f 133//133 83//83 78//78
f 135//135 103//103 64//64
f 135//135 109//109 103//103
f 136//136 114//114 82//82
f 136//136 112//112 113//113
f 114//114 136//136 132//132
f 136//136 82//82 52//52
f 112//112 136//136 52//52
f 131//131 136//136 113//113
f 136//136 131//131 132//132
f 137//137 110//110 96//96
f 137//137 114//114 110//110
f 114//114 137//137 115//115
f 138//138 116//116 98//98
f 116//116 138//138 81//81
f 139//139 67//67 98//98
f 139//139 96//96 67//67
f 140//140 141//141 78//78
f 140//140 78//78 7//7
f 6//6 140//140 7//7
f 27//27 140//140 6//6
f 117//117 140//140 27//27
f 64//64 142//142 65//65
f 123//123 142//142 64//64
f 142//142 72//72 65//65
f 142//142 123//123 72//72
f 143//143 123//123 64//64
f 123//123 143//143 124//124
f 144//144 126//126 102//102
f 30//30 144//144 102//102
f 126//126 144//144 124//124
f 144//144 30//30 31//31
f 144//144 54//54 24//24
f 53//53 144//144 31//31
f 144//144 53//53 54//54
f 84//84 144//144 24//24
f 127//127 145//145 70//70
f 145//145 127//127 86//86
f 145//145 56//56 70//70
f 145//145 86//86 56//56
f 146//146 128//128 85//85
f 128//128 146//146 127//127
f 86//86 146//146 85//85
f 127//127 146//146 86//86
f 140//140 147//147 141//141
f 147//147 140//140 117//117
f 147//147 117//117 61//61
f 130//130 147//147 61//61
f 147//147 134//134 78//78
f 141//141 147//147 78//78
f 147//147 133//133 134//134
f 133//133 147//147 130//130
f 148//148 133//133 108//108
f 133//133 149//149 150//150
f 109//109 149//149 104//104
f 148//148 149//149 133//133
f 135//135 149//149 109//109
f 149//149 108//108 104//104
f 149//149 148//148 108//108
f 149//149 135//135 64//64
f 131//131 149//149 64//64
f 149//149 131//131 150//150
f 151//151 131//131 113//113
f 133//133 151//151 113//113
f 131//131 151//151 150//150
f 151//151 133//133 150//150
f 116//116 152//152 98//98
f 152//152 139//139 98//98
f 139//139 152//152 96//96
f 152//152 116//116 115//115
f 137//137 152//152 115//115
f 152//152 137//137 96//96
f 128//128 153//153 84//84
f 153//153 144//144 84//84
f 153//153 128//128 125//125
f 124//124 153//153 125//125
f 144//144 153//153 124//124
f 51//51 11//11 5//5
f 51//51 5//5 7//7
f 138//138 8//8 2//2
f 138//138 2//2 3//3
f 138//138 44//44 71//71
f 138//138 62//62 15//15
f 14//14 138//138 15//15
f 43//43 138//138 71//71
f 5//5 138//138 6//6
f 138//138 11//11 13//13
f 8//8 138//138 18//18
f 138//138 119//119 6//6
f 11//11 138//138 5//5
f 138//138 14//14 46//46
f 59//59 138//138 3//3
f 138//138 43//43 18//18
f 44//44 138//138 46//46
f 138//138 59//59 119//119
f 81//81 138//138 13//13
f 138//138 122//122 62//62
f 97//97 138//138 98//98
f 122//122 138//138 97//97
f 126//126 143//143 103//103
f 103//103 143//143 64//64
f 143//143 126//126 124//124
